<?xml version="1.0" standalone="no"?><!DOCTYPE svg PUBLIC "-//W3C//DTD SVG 1.1//EN" "http://www.w3.org/Graphics/SVG/1.1/DTD/svg11.dtd"><svg t="1609920809586" class="icon" viewBox="0 0 1024 1024" version="1.1" xmlns="http://www.w3.org/2000/svg" p-id="7355" width="14" height="14" xmlns:xlink="http://www.w3.org/1999/xlink"><defs><style type="text/css"></style></defs><path d="M832 592c-0.128 109.312-80.64 201.856-188.8 217.216H439.168c-12.416 0-22.528-10.112-22.528-22.528s10.112-22.528 22.528-22.528h200.96c86.528-13.824 149.376-89.728 146.944-177.28-2.432-87.552-69.504-159.744-156.8-168.704H267.008l121.088 121.088c8.832 8.832 8.96 23.04 0.128 31.872-8.832 8.832-23.04 8.96-31.872 0.128L199.552 414.464a25.6768 25.6768 0 0 1 0-36.352l156.8-156.928a22.5536 22.5536 0 0 1 38.4 15.872c0 6.016-2.432 11.648-6.656 15.872l-120.32 120.448h364.416c113.024 10.496 199.552 105.216 199.808 218.624z m0 0" p-id="7356" fill="#999999"></path></svg>